<?xml version="1.0" encoding="utf-8"?>
<!-- Generator: Adobe Illustrator 22.1.0, SVG Export Plug-In . SVG Version: 6.00 Build 0)  -->
<svg version="1.1" id="Layer_1" xmlns="http://www.w3.org/2000/svg" xmlns:xlink="http://www.w3.org/1999/xlink" x="0px" y="0px"
	 viewBox="0 0 1920 1080" style="enable-background:new 0 0 1920 1080;" xml:space="preserve">
<style type="text/css">
	.st0{fill:#33CCCC;stroke:#33CCCC;stroke-width:0.73;stroke-miterlimit:10;}
	.st1{clip-path:url(#SVGID_2_);}
	.st2{fill:none;stroke:#33CCCC;stroke-width:1.000000e-02;stroke-miterlimit:10;}
	.st3{fill:none;stroke:#33CCCC;stroke-width:2.000000e-02;stroke-miterlimit:10;}
	.st4{fill:none;stroke:#33CCCC;stroke-width:3.000000e-02;stroke-miterlimit:10;}
	.st5{fill:none;stroke:#33CCCC;stroke-width:4.000000e-02;stroke-miterlimit:10;}
	.st6{fill:none;stroke:#33CCCC;stroke-width:5.000000e-02;stroke-miterlimit:10;}
	.st7{fill:none;stroke:#33CCCC;stroke-width:6.000000e-02;stroke-miterlimit:10;}
	.st8{fill:none;stroke:#33CCCC;stroke-width:7.000000e-02;stroke-miterlimit:10;}
	.st9{fill:none;stroke:#33CCCC;stroke-width:8.000000e-02;stroke-miterlimit:10;}
	.st10{fill:none;stroke:#33CCCC;stroke-width:9.000000e-02;stroke-miterlimit:10;}
	.st11{fill:none;stroke:#33CCCC;stroke-width:0.1;stroke-miterlimit:10;}
	.st12{fill:none;stroke:#33CCCC;stroke-width:0.11;stroke-miterlimit:10;}
	.st13{fill:none;stroke:#33CCCC;stroke-width:0.12;stroke-miterlimit:10;}
	.st14{fill:none;stroke:#33CCCC;stroke-width:0.13;stroke-miterlimit:10;}
	.st15{fill:none;stroke:#33CCCC;stroke-width:0.14;stroke-miterlimit:10;}
	.st16{fill:none;stroke:#33CCCC;stroke-width:0.15;stroke-miterlimit:10;}
	.st17{fill:none;stroke:#33CCCC;stroke-width:0.16;stroke-miterlimit:10;}
	.st18{fill:none;stroke:#33CCCC;stroke-width:0.17;stroke-miterlimit:10;}
	.st19{fill:none;stroke:#33CCCC;stroke-width:0.18;stroke-miterlimit:10;}
	.st20{fill:none;stroke:#33CCCC;stroke-width:0.19;stroke-miterlimit:10;}
	.st21{fill:none;stroke:#33CCCC;stroke-width:0.2;stroke-miterlimit:10;}
	.st22{fill:none;stroke:#33CCCC;stroke-width:0.22;stroke-miterlimit:10;}
	.st23{fill:none;stroke:#33CCCC;stroke-width:0.23;stroke-miterlimit:10;}
	.st24{fill:none;stroke:#33CCCC;stroke-width:0.25;stroke-miterlimit:10;}
	.st25{fill:none;stroke:#33CCCC;stroke-width:0.27;stroke-miterlimit:10;}
	.st26{fill:none;stroke:#33CCCC;stroke-width:0.29;stroke-miterlimit:10;}
	.st27{fill:none;stroke:#33CCCC;stroke-width:0.31;stroke-miterlimit:10;}
	.st28{fill:none;stroke:#33CCCC;stroke-width:0.33;stroke-miterlimit:10;}
	.st29{fill:none;stroke:#33CCCC;stroke-width:0.35;stroke-miterlimit:10;}
	.st30{fill:none;stroke:#33CCCC;stroke-width:0.37;stroke-miterlimit:10;}
	.st31{fill:none;stroke:#33CCCC;stroke-width:0.4;stroke-miterlimit:10;}
	.st32{fill:none;stroke:#33CCCC;stroke-width:0.43;stroke-miterlimit:10;}
	.st33{fill:none;stroke:#33CCCC;stroke-width:0.46;stroke-miterlimit:10;}
	.st34{fill:none;stroke:#33CCCC;stroke-width:0.49;stroke-miterlimit:10;}
	.st35{fill:none;stroke:#33CCCC;stroke-width:0.52;stroke-miterlimit:10;}
	.st36{fill:none;stroke:#33CCCC;stroke-width:0.56;stroke-miterlimit:10;}
	.st37{fill:none;stroke:#33CCCC;stroke-width:0.6;stroke-miterlimit:10;}
	.st38{fill:none;stroke:#33CCCC;stroke-width:0.64;stroke-miterlimit:10;}
	.st39{fill:none;stroke:#33CCCC;stroke-width:0.68;stroke-miterlimit:10;}
	.st40{fill:none;stroke:#33CCCC;stroke-width:0.73;stroke-miterlimit:10;}
	.st41{fill:#33CCCC;}
</style>
<title>SockerooMarketing_Logo</title>
<path class="st0" d="M233.5,291.3c7.6-7.6,16.7-13.7,26.6-18c10.4-4.5,21.5-6.7,32.8-6.7c28.4-0.2,54.9,14,70.4,37.8
	c0.6,1.3,2.1,2,3.4,1.5c1.4-0.4,2.3-1.8,2.1-3.2v-8.6h3v52.4h-3.1v-19.3c0-3.1-0.6-6.2-1.7-9c-0.9-2.4-2.1-4.7-3.4-6.9
	c-14.1-25.9-41.2-41.9-70.7-41.6c-9.8-0.1-19.5,1.8-28.5,5.4c-8.9,3.5-17.2,8.4-24.7,14.4c-3.4,3.1-6.2,6.8-8.2,10.9L233.5,291.3z"
	/>
<path class="st0" d="M371.1,526.1c-10.3,14.8-24.6,26.4-41.2,33.4c-23.5,9.9-50,10-73.6,0.2c-11.2-4.7-21.4-11.5-30-20
	c-8.7-8.5-15.6-18.7-20.4-29.8c-5-11.5-7.7-24-7.9-36.6V472c-0.1-7.9,3-15.6,8.8-21c5.6-5.6,13.3-8.7,21.3-8.6
	c16.7-0.2,30.4,13.1,30.6,29.7c0.2,16.7-13.1,30.4-29.7,30.6c-10.7,0.2-20.6-5.3-26.2-14.5c1.9,10.7,5.7,20.9,11.3,30.2
	c5.3,9,12.1,17.1,20.2,23.8c8.1,6.8,17.2,12.1,27,15.9c23.3,8.7,49.1,7.6,71.5-3.2c11.8-5.8,22.2-14,30.6-24.1
	c5.7-6.5,8.8-14.9,8.6-23.6L371.1,526.1z"/>
<g>
	<g>
		<defs>
			<path id="SVGID_1_" d="M371.8,507.4c0.1-7-1.8-13.9-5.6-19.7c-3.6-5.6-8.7-10.2-14.6-13.3c0,0-73.3-34.4-96.5-48.1
				c-9.8-5.7-24.9-17.1-33.5-30.5c-14.6-23.3-17-52.3-6.2-77.7c4.3-10,10.4-19.1,18-26.8l-2,9c-2,4.2-3,8.8-3,13.5
				c-0.1,6,1.6,11.9,4.9,16.9c3.2,4.9,7.5,9,12.7,11.8l89.3,44.2c15.5,8,28.6,19.8,38.1,34.4c16.7,26.3,19.5,59.1,7.3,87.8
				c-2.6,6-5.8,11.7-9.5,17.1L371.8,507.4z"/>
		</defs>
		<clipPath id="SVGID_2_">
			<use xlink:href="#SVGID_1_"  style="overflow:visible;"/>
		</clipPath>
		<g class="st1">
			<path class="st2" d="M297.7,409.9l0.1-0.1v-0.2c0,0,0.2-0.8,0.3-1c0.1-0.1,0.1-0.3,0.2-0.4s0.2-0.3,0.3-0.3
				c0.1-0.1,0.2-0.1,0.3-0.1h0.3h-0.1l0,0c0,0.1,0,0.1,0,0.2l-0.3,0.9c-0.1,0.2-0.1,0.3-0.2,0.5c-0.1,0.1-0.2,0.3-0.4,0.4
				c-0.1,0.1-0.2,0.1-0.3,0.1H297.7L297.7,409.9z"/>
			<path class="st2" d="M297.7,410c0.1,0,0.1-0.1,0.2-0.2c0-0.1,0-0.1,0-0.2c0,0,0.2-0.8,0.3-1.1c0.1-0.2,0.1-0.3,0.2-0.4
				s0.2-0.3,0.3-0.4c0.1-0.1,0.2-0.1,0.3-0.1h0.3l0,0l0,0c0,0,0,0-0.1,0.1c0,0.1,0,0.1,0,0.2l-0.3,1c-0.1,0.2-0.2,0.4-0.3,0.5
				c-0.1,0.2-0.2,0.3-0.4,0.4l-0.3,0.1L297.7,410L297.7,410z"/>
			<path class="st2" d="M297.6,410.1l0.2-0.2c0-0.1,0-0.1,0-0.2c0,0,0.2-0.8,0.3-1.1l0.2-0.5c0.1-0.1,0.2-0.3,0.4-0.4l0.3-0.1h0.2
				l0,0l0,0l-0.1,0.2c0,0.1,0,0.1,0,0.2l-0.3,1c-0.1,0.2-0.2,0.4-0.3,0.6c-0.1,0.2-0.3,0.3-0.4,0.4s-0.2,0.1-0.3,0.2L297.6,410.1
				L297.6,410.1z"/>
			<path class="st2" d="M297.6,410.2c0.1-0.1,0.1-0.1,0.2-0.2c0-0.1,0-0.1,0-0.2c0,0,0.2-0.9,0.3-1.2c0-0.2,0.1-0.4,0.2-0.5
				c0.1-0.2,0.2-0.3,0.4-0.4c0.1-0.1,0.2-0.1,0.3-0.2h0.3l0,0h-0.1l-0.1,0.1v0.2l-0.3,1.1c-0.1,0.2-0.2,0.4-0.3,0.6
				c-0.1,0.2-0.3,0.3-0.5,0.5C297.9,410.1,297.8,410.1,297.6,410.2h-0.1H297.6z"/>
			<path class="st2" d="M297.6,410.3c0.1-0.1,0.1-0.1,0.2-0.2c0-0.1,0-0.2,0-0.2s0.2-1,0.3-1.3c0.1-0.2,0.1-0.4,0.2-0.6
				s0.3-0.3,0.4-0.5c0.1-0.1,0.2-0.1,0.3-0.2c0.1,0,0.2,0,0.3,0l0,0h-0.1c-0.1,0-0.1,0.1-0.2,0.2c0,0.1,0,0.1,0,0.2l-0.3,1.2
				c-0.1,0.2-0.2,0.4-0.3,0.6c-0.1,0.2-0.3,0.4-0.5,0.5C297.9,410.2,297.7,410.2,297.6,410.3h-0.1H297.6z"/>
			<path class="st2" d="M297.5,410.4l0.2-0.2c0-0.1,0-0.2,0-0.3c0,0,0.2-1,0.3-1.4c0.1-0.2,0.1-0.4,0.3-0.6c0.1-0.2,0.3-0.4,0.4-0.5
				l0.4-0.2c0.1,0,0.2,0,0.3,0l0,0h-0.1l-0.2,0.2v0.2l-0.3,1.3c-0.1,0.2-0.2,0.5-0.3,0.7c-0.1,0.2-0.3,0.4-0.5,0.6
				C297.9,410.3,297.7,410.3,297.5,410.4h-0.1H297.5z"/>
			<path class="st2" d="M297.5,410.5c0.1-0.1,0.1-0.1,0.2-0.2c0-0.1,0-0.2,0-0.3c0,0,0.2-1.1,0.3-1.5c0.1-0.2,0.2-0.4,0.3-0.6
				c0.1-0.2,0.3-0.4,0.5-0.5c0.1-0.1,0.2-0.2,0.4-0.2c0.1,0,0.2,0,0.3,0l0,0h-0.1c-0.1,0.1-0.1,0.1-0.2,0.2c0,0.1-0.1,0.2-0.1,0.2
				l-0.3,1.4c-0.1,0.3-0.2,0.5-0.3,0.7c-0.1,0.2-0.3,0.4-0.5,0.6C297.8,410.4,297.6,410.5,297.5,410.5h-0.2H297.5z"/>
			<path class="st2" d="M297.4,410.6c0.1-0.1,0.2-0.2,0.2-0.2c0-0.1,0-0.2,0-0.3c0,0,0.2-1.2,0.3-1.6c0.1-0.2,0.2-0.5,0.3-0.7
				c0.1-0.2,0.3-0.4,0.5-0.6c0.1-0.1,0.2-0.2,0.4-0.2c0.1,0,0.2,0,0.4,0l0,0h-0.1c-0.1,0-0.2,0.1-0.2,0.2c-0.1,0.1-0.1,0.2-0.1,0.3
				l-0.3,1.5c-0.1,0.3-0.2,0.5-0.3,0.8c-0.1,0.3-0.3,0.5-0.6,0.7C297.8,410.5,297.6,410.6,297.4,410.6h-0.2H297.4z"/>
			<path class="st2" d="M297.4,410.8c0.1-0.1,0.2-0.2,0.2-0.3c0-0.1,0.1-0.2,0.1-0.3c0,0,0.2-1.3,0.3-1.7c0-0.3,0.1-0.5,0.3-0.7
				c0.1-0.2,0.3-0.5,0.5-0.6l0.4-0.2c0.1,0,0.3,0,0.4,0l0,0c0,0,0,0-0.2,0c-0.1,0.1-0.1,0.1-0.2,0.2s-0.1,0.2-0.1,0.3l-0.3,1.6
				c-0.1,0.3-0.2,0.6-0.3,0.8c-0.1,0.3-0.3,0.5-0.6,0.7C297.8,410.7,297.6,410.8,297.4,410.8L297.4,410.8L297.4,410.8z"/>
			<path class="st2" d="M297.4,410.9l0.2-0.3c0-0.1,0.1-0.2,0.1-0.3c0,0,0.2-1.4,0.3-1.8c0.1-0.3,0.2-0.5,0.3-0.8
				c0.2-0.2,0.3-0.5,0.6-0.7c0.1-0.2,0.3-0.3,0.4-0.4h0.4h-0.1c-0.1,0-0.1,0-0.2,0c-0.1,0.1-0.2,0.2-0.2,0.3
				c-0.1,0.1-0.1,0.2-0.1,0.3l-0.3,1.7c-0.1,0.3-0.2,0.6-0.3,0.9c-0.2,0.3-0.4,0.5-0.6,0.8C297.7,410.6,297.5,410.7,297.4,410.9
				c-0.1-0.1-0.2-0.1-0.3-0.1L297.4,410.9z"/>
			<path class="st2" d="M297.3,411.1c0.1-0.1,0.2-0.2,0.2-0.3c0.1-0.1,0.1-0.2,0.1-0.4c0,0,0.2-1.4,0.3-1.9c0.1-0.3,0.2-0.6,0.3-0.9
				c0.2-0.3,0.4-0.5,0.6-0.7c0.1-0.1,0.3-0.2,0.5-0.3c0.1,0,0.3,0,0.4,0h-0.1h-0.2c-0.1,0.1-0.2,0.2-0.2,0.3c0,0.1,0,0.2,0,0.3
				L299,409c-0.1,0.7-0.5,1.3-1,1.8C297.8,410.9,297.6,411,297.3,411.1h-0.2H297.3z"/>
			<path class="st2" d="M297.3,411.2c0.1-0.1,0.2-0.2,0.3-0.3c0.1-0.1,0.1-0.3,0.1-0.4c0,0,0.2-1.5,0.3-2c0.1-0.3,0.2-0.6,0.3-0.9
				c0.2-0.3,0.4-0.6,0.6-0.8c0.2-0.1,0.3-0.3,0.5-0.3s0.3,0,0.5,0h-0.1c-0.1,0-0.2,0.1-0.2,0.1c-0.1,0.1-0.2,0.2-0.2,0.3
				c0,0.1,0,0.2,0,0.3l-0.3,1.9c-0.1,0.4-0.2,0.7-0.3,1c-0.2,0.3-0.4,0.6-0.7,0.9c-0.2,0.2-0.4,0.3-0.6,0.4h-0.3L297.3,411.2z"/>
			<path class="st2" d="M297.2,411.5c0.1-0.1,0.2-0.2,0.3-0.4c0.1-0.1,0.1-0.3,0.1-0.4c0,0,0.2-1.6,0.3-2.2c0.1-0.7,0.4-1.3,1-1.8
				c0.2-0.2,0.3-0.3,0.5-0.4c0.2,0,0.3,0,0.5,0h-0.1l-0.2,0.1c-0.1,0.1-0.2,0.2-0.2,0.3c0,0.1,0,0.2,0,0.4l-0.3,2
				c-0.1,0.4-0.2,0.8-0.4,1.1c-0.2,0.4-0.4,0.7-0.7,1c-0.2,0.2-0.4,0.3-0.6,0.4c-0.1,0-0.2,0-0.3,0L297.2,411.5z"/>
			<path class="st2" d="M297.2,411.5c0.1-0.1,0.2-0.2,0.3-0.4c0.1-0.1,0.1-0.3,0.1-0.4c0,0,0.2-1.8,0.3-2.4c0.1-0.7,0.5-1.4,1-2
				c0.2-0.2,0.4-0.3,0.6-0.4s0.4-0.1,0.5,0h-0.2c-0.1,0-0.2,0.1-0.2,0.2c-0.1,0.1-0.2,0.2-0.2,0.3c0,0.1,0,0.3,0,0.4l-0.2,2.1
				c-0.1,0.4-0.2,0.8-0.4,1.2c-0.2,0.4-0.5,0.8-0.8,1c-0.2,0.2-0.4,0.3-0.6,0.4H297L297.2,411.5z"/>
			<path class="st2" d="M297.1,411.8c0.1-0.1,0.2-0.3,0.3-0.4c0.1-0.2,0.1-0.3,0.1-0.5c0,0,0.1-1.9,0.2-2.4c0.1-0.4,0.2-0.7,0.3-1.1
				c0.2-0.4,0.4-0.7,0.7-1c0.2-0.2,0.4-0.3,0.6-0.4s0.4-0.1,0.6-0.1l-0.2,0.1c-0.1,0-0.2,0.1-0.3,0.2c-0.1,0.1-0.2,0.2-0.3,0.4
				c0,0.1,0,0.3,0,0.4l-0.2,2.3c-0.1,0.4-0.2,0.9-0.4,1.2c-0.2,0.4-0.5,0.8-0.8,1.1c-0.2,0.2-0.4,0.4-0.7,0.5l-0.4,0.1L297.1,411.8z
				"/>
			<path class="st3" d="M297.1,412c0.1-0.1,0.3-0.3,0.3-0.5c0.1-0.2,0.1-0.3,0.1-0.5c0,0,0.1-2,0.2-2.7c0.1-0.9,0.5-1.6,1.1-2.2
				c0.2-0.2,0.4-0.3,0.7-0.5c0.2-0.1,0.4-0.2,0.6-0.2l-0.2,0.1c-0.1,0-0.2,0.1-0.3,0.2c-0.1,0.1-0.2,0.2-0.3,0.4c0,0.1,0,0.3,0,0.4
				l-0.2,2.4c-0.1,0.5-0.2,0.9-0.4,1.3c-0.2,0.4-0.5,0.8-0.8,1.2c-0.2,0.2-0.5,0.4-0.7,0.5l-0.4,0.1L297.1,412z"/>
			<path class="st3" d="M297.1,412.2c0.1-0.1,0.3-0.3,0.3-0.5c0.1-0.2,0.1-0.4,0.1-0.6c0,0,0-2.1,0.2-2.8c0.1-0.4,0.2-0.8,0.3-1.2
				c0.2-0.4,0.5-0.8,0.8-1.1c0.2-0.2,0.4-0.4,0.7-0.5c0.2-0.1,0.4-0.2,0.7-0.2l-0.2,0.1l-0.3,0.2c-0.1,0.1-0.2,0.3-0.3,0.4
				c0,0.2,0,0.3,0,0.5l-0.2,2.6c0,0.5-0.2,1-0.4,1.4c-0.2,0.5-0.5,0.9-0.9,1.3c-0.2,0.2-0.5,0.4-0.8,0.6c-0.1,0.1-0.3,0.1-0.4,0.1
				L297.1,412.2z"/>
			<path class="st3" d="M297,412.4c0.1-0.2,0.3-0.3,0.4-0.5s0.1-0.4,0.1-0.6c0,0,0-2.2,0.1-3c0-0.5,0.2-0.9,0.3-1.3
				c0.2-0.5,0.5-0.9,0.8-1.2c0.2-0.2,0.5-0.4,0.7-0.6c0.2-0.1,0.5-0.2,0.7-0.2l-0.2,0.1l-0.3,0.2c-0.1,0.1-0.2,0.3-0.3,0.5
				c0,0.2,0,0.3,0,0.5l-0.1,2.7c0,0.5-0.2,1-0.4,1.5c-0.2,0.5-0.5,1-0.9,1.4c-0.2,0.3-0.5,0.5-0.8,0.6c-0.1,0.1-0.3,0.1-0.4,0.2
				L297,412.4z"/>
			<path class="st3" d="M297,412.7c0.1-0.2,0.3-0.4,0.4-0.6s0.1-0.4,0.1-0.6c0,0,0-2.4,0-3.2c0-0.5,0.2-1,0.3-1.4
				c0.2-0.5,0.5-0.9,0.9-1.3c0.2-0.3,0.5-0.5,0.8-0.6c0.2-0.1,0.5-0.2,0.8-0.2l-0.2,0.2c-0.1,0.1-0.2,0.1-0.3,0.2
				c-0.1,0.2-0.2,0.3-0.3,0.5c-0.1,0.2-0.1,0.4-0.1,0.5v3c0,0.6-0.2,1.1-0.4,1.6c-0.2,0.6-0.5,1.1-1,1.5c-0.3,0.3-0.6,0.5-0.9,0.7
				c-0.1,0.1-0.3,0.1-0.5,0.2L297,412.7z"/>
			<path class="st3" d="M296.9,413c0.2-0.2,0.3-0.4,0.4-0.6s0.1-0.4,0.1-0.7c0,0,0-2.4,0-3.4c0-0.5,0.2-1,0.3-1.5
				c0.2-0.5,0.5-1,0.9-1.4c0.2-0.3,0.5-0.5,0.8-0.7c0.2-0.1,0.5-0.2,0.8-0.3l-0.2,0.2c-0.1,0.1-0.2,0.2-0.3,0.3
				c-0.1,0.2-0.3,0.3-0.3,0.5c-0.1,0.2-0.1,0.4-0.1,0.6v3.1c0,0.6-0.2,1.2-0.4,1.7c-0.2,0.6-0.6,1.1-1,1.6c-0.3,0.3-0.6,0.6-0.9,0.8
				c-0.2,0.1-0.3,0.2-0.5,0.2L296.9,413z"/>
			<path class="st3" d="M296.9,413.3c0.2-0.2,0.3-0.4,0.4-0.7c0.1-0.2,0.1-0.5,0.1-0.7c0,0,0-2.7,0-3.6c0-0.6,0.2-1.1,0.3-1.6
				c0.2-0.6,0.5-1.1,0.9-1.5c0.3-0.3,0.6-0.5,0.9-0.7s0.6-0.3,0.9-0.3l-0.2,0.2c-0.1,0.1-0.3,0.2-0.4,0.3c-0.2,0.2-0.3,0.4-0.3,0.6
				c-0.1,0.2-0.1,0.4-0.1,0.6v3.3c0,0.6-0.1,1.3-0.4,1.9c-0.2,0.6-0.6,1.2-1.1,1.7c-0.3,0.3-0.6,0.6-1,0.8c-0.2,0.1-0.3,0.2-0.5,0.2
				L296.9,413.3z"/>
			<path class="st3" d="M296.9,413.6c0.3-0.4,0.5-0.9,0.6-1.5c0,0,0-2.9,0-3.9c0-0.6,0.1-1.2,0.3-1.8c0.2-0.6,0.6-1.2,1-1.7
				c0.3-0.3,0.6-0.6,0.9-0.8c0.3-0.2,0.6-0.3,1-0.3l-0.3,0.2c-0.2,0.1-0.3,0.2-0.4,0.3c-0.2,0.2-0.3,0.4-0.4,0.6s-0.1,0.5-0.1,0.7
				v3.6c0,0.7-0.1,1.3-0.4,2c-0.2,0.7-0.6,1.3-1.1,1.9c-0.3,0.4-0.7,0.7-1,0.9c-0.2,0.1-0.4,0.2-0.6,0.2L296.9,413.6z"/>
			<path class="st4" d="M296.9,413.9c0.2-0.2,0.3-0.5,0.4-0.8s0.1-0.5,0.1-0.8c0,0-0.2-3-0.2-4.1c0-0.6,0.1-1.3,0.3-1.9
				c0.2-0.6,0.6-1.2,1-1.8c0.3-0.3,0.6-0.6,1-0.9c0.3-0.2,0.6-0.3,1-0.4l-0.3,0.2c-0.2,0.1-0.3,0.2-0.4,0.4
				c-0.2,0.2-0.3,0.4-0.4,0.7c-0.1,0.2-0.1,0.5-0.1,0.7l0.2,3.8c0,0.7-0.1,1.4-0.4,2.1c-0.2,0.7-0.6,1.4-1.1,2
				c-0.3,0.4-0.7,0.7-1.1,1c-0.2,0.1-0.4,0.2-0.6,0.3L296.9,413.9z"/>
			<path class="st4" d="M296.9,414.3c0.2-0.3,0.4-0.5,0.5-0.8s0.1-0.6,0.1-0.9c0,0-0.2-3.2-0.2-4.4c0-0.7,0.1-1.3,0.3-2
				c0.2-0.7,0.6-1.3,1.1-1.9c0.3-0.4,0.6-0.7,1-0.9c0.3-0.2,0.7-0.4,1.1-0.4l-0.3,0.2c-0.2,0.1-0.3,0.2-0.4,0.4
				c-0.2,0.2-0.3,0.4-0.4,0.7c-0.1,0.2-0.1,0.5-0.1,0.8l0.2,4c0,0.8-0.1,1.5-0.4,2.2c-0.3,0.8-0.7,1.5-1.2,2.1
				c-0.3,0.4-0.7,0.8-1.2,1c-0.2,0.1-0.4,0.2-0.7,0.3L296.9,414.3z"/>
			<path class="st4" d="M296.9,414.6c0.2-0.3,0.4-0.6,0.5-0.9s0.1-0.6,0.1-0.9c0,0-0.3-3.5-0.3-4.7c0-0.7,0.1-1.4,0.3-2.1
				c0.2-0.7,0.6-1.4,1.1-2c0.3-0.4,0.7-0.7,1.1-1c0.3-0.2,0.7-0.4,1.1-0.4l-0.3,0.3c-0.2,0.1-0.3,0.3-0.5,0.4
				c-0.2,0.2-0.3,0.5-0.4,0.8s-0.1,0.5-0.1,0.8l0.3,4.3c0,0.8-0.1,1.7-0.3,2.4c-0.3,0.8-0.7,1.6-1.2,2.3c-0.3,0.4-0.8,0.8-1.2,1.1
				c-0.2,0.1-0.5,0.3-0.7,0.4L296.9,414.6z"/>
			<path class="st4" d="M296.9,415c0.2-0.3,0.4-0.6,0.5-1c0.1-0.3,0.1-0.7,0-1c0,0-0.4-3.7-0.5-4.9c0-0.8,0.1-1.5,0.3-2.3
				c0.2-0.8,0.6-1.5,1.1-2.2c0.3-0.4,0.7-0.8,1.2-1.1c0.4-0.3,0.8-0.4,1.2-0.5l-0.3,0.3c-0.2,0.1-0.4,0.3-0.5,0.4
				c-0.2,0.2-0.3,0.5-0.4,0.8s-0.1,0.6-0.1,0.9l0.4,4.5c0.1,0.9,0,1.7-0.3,2.6s-0.7,1.7-1.3,2.4C297.8,414.4,297.4,414.8,296.9,415
				l-0.7,0.5L296.9,415z"/>
			<path class="st4" d="M296.9,415.5c0.3-0.3,0.4-0.6,0.5-1c0.1-0.3,0.1-0.7,0-1c0,0-0.5-3.9-0.6-5.2c0-0.8,0-1.6,0.3-2.4
				c0.2-0.9,0.6-1.7,1.2-2.4c0.4-0.5,0.8-0.9,1.2-1.2c0.4-0.3,0.8-0.5,1.3-0.6l-0.3,0.3c-0.2,0.1-0.4,0.3-0.5,0.5
				c-0.2,0.3-0.4,0.6-0.5,0.9s-0.1,0.6,0,0.9l0.6,4.9c0.1,0.9,0,1.8-0.3,2.7c-0.3,1-0.7,1.9-1.3,2.7c-0.4,0.5-0.9,1-1.4,1.3
				c-0.2,0.2-0.5,0.3-0.8,0.4L296.9,415.5z"/>
			<path class="st5" d="M296.9,415.9c0.2-0.3,0.4-0.7,0.5-1.1s0.1-0.8,0-1.1c0,0-0.6-4.1-0.7-5.6c-0.1-0.9,0-1.7,0.2-2.6
				c0.3-0.9,0.7-1.7,1.3-2.4c0.4-0.5,0.8-0.9,1.3-1.3c0.4-0.3,0.9-0.5,1.4-0.6l-0.4,0.3c-0.2,0.1-0.4,0.3-0.5,0.5
				c-0.2,0.3-0.4,0.6-0.5,1c0,0.3,0,0.7,0,1l0.7,5.1c0.1,1,0,2-0.3,2.9c-0.3,1-0.7,2-1.4,2.9c-0.4,0.6-0.9,1.1-1.5,1.4
				c-0.3,0.2-0.5,0.3-0.8,0.5L296.9,415.9z"/>
			<path class="st5" d="M296.9,416.4c0.3-0.4,0.5-0.7,0.6-1.2c0.1-0.4,0.1-0.8,0-1.2c0,0-0.8-4.4-0.9-5.9c-0.1-0.9,0-1.8,0.2-2.7
				c0.3-1,0.7-1.9,1.3-2.7c0.4-0.5,0.9-1,1.4-1.4c0.4-0.3,0.9-0.6,1.5-0.7l-0.4,0.4c-0.2,0.2-0.4,0.4-0.6,0.6
				c-0.2,0.3-0.4,0.7-0.5,1s-0.1,0.7,0,1l0.8,5.4c0.1,1,0.1,2.1-0.2,3.1c-0.3,1.1-0.8,2.1-1.5,3c-0.4,0.6-0.9,1.1-1.5,1.6
				c-0.3,0.2-0.6,0.3-0.9,0.5L296.9,416.4z"/>
			<path class="st5" d="M296.9,416.9c0.3-0.4,0.5-0.8,0.6-1.3c0.1-0.4,0.1-0.9,0-1.3c0,0-0.9-4.6-1.1-6.2c-0.1-1,0-2,0.2-2.9
				c0.2-1,0.7-2,1.3-2.9c0.4-0.6,0.9-1.1,1.4-1.5s1-0.6,1.6-0.8l-0.4,0.4c-0.2,0.2-0.4,0.4-0.6,0.6c-0.2,0.3-0.4,0.7-0.5,1.1
				s-0.1,0.8,0,1.1l1,5.8c0.1,1.1,0.1,2.2-0.2,3.3c-0.3,1.2-0.8,2.3-1.5,3.3c-0.5,0.7-1,1.2-1.7,1.7c-0.3,0.2-0.6,0.4-0.9,0.5
				L296.9,416.9z"/>
			<path class="st5" d="M296.9,417.4c0.3-0.4,0.5-0.9,0.6-1.4c0.1-0.4,0.1-0.9,0-1.3c0,0-1-4.9-1.3-6.6c-0.2-1-0.2-2.1,0-3.1
				c0.3-1.1,0.7-2.2,1.4-3.1c0.4-0.6,0.9-1.2,1.5-1.6c0.5-0.4,1.1-0.7,1.7-0.8l-0.4,0.4c-0.3,0.2-0.5,0.4-0.7,0.7
				c-0.2,0.4-0.4,0.8-0.5,1.2c-0.1,0.4-0.1,0.8,0,1.2l1.2,6.1c0.2,1.2,0.2,2.4,0,3.5c-0.3,1.3-0.8,2.5-1.6,3.5
				c-0.5,0.7-1.1,1.3-1.7,1.8c-0.3,0.2-0.7,0.4-1,0.6L296.9,417.4z"/>
			<path class="st6" d="M296.9,418c0.3-0.4,0.5-0.9,0.6-1.5c0.1-0.5,0.1-1,0-1.4c0,0-1.2-5.2-1.5-7c-0.2-1.1-0.2-2.2,0-3.3
				c0.2-1.2,0.7-2.3,1.4-3.3c0.4-0.7,1-1.3,1.6-1.8c0.5-0.4,1.1-0.7,1.8-0.9l-0.5,0.5c-0.3,0.2-0.5,0.4-0.7,0.7
				c-0.3,0.4-0.4,0.8-0.5,1.3c-0.1,0.4-0.1,0.8,0,1.3l1.4,6.5c0.2,1.2,0.2,2.5,0,3.7c-0.3,1.4-0.8,2.6-1.6,3.8
				c-0.5,0.8-1.1,1.4-1.8,2c-0.3,0.2-0.7,0.5-1.1,0.7L296.9,418z"/>
			<path class="st6" d="M297,418.6c0.3-0.5,0.5-1,0.7-1.6c0.1-0.5,0.1-1,0-1.5c0,0-1.4-5.5-1.7-7.4c-0.2-1.2-0.2-2.3,0-3.5
				c0.3-1.3,0.8-2.5,1.5-3.6c0.5-0.7,1-1.4,1.7-1.9c0.6-0.5,1.2-0.8,1.9-1l-0.5,0.5c-0.3,0.2-0.5,0.5-0.7,0.8
				c-0.3,0.4-0.5,0.9-0.6,1.4c-0.1,0.4-0.1,0.9,0,1.3l1.6,6.9c0.3,1.3,0.3,2.7,0,4c-0.3,1.4-0.8,2.8-1.7,4c-0.5,0.8-1.2,1.5-2,2.1
				c-0.4,0.3-0.7,0.5-1.1,0.7L297,418.6z"/>
			<path class="st6" d="M297.1,419.3c0.3-0.5,0.6-1.1,0.7-1.7c0.1-0.5,0.1-1.1,0-1.6c0,0-1.6-5.8-2-7.9c-0.2-1.2-0.2-2.5,0-3.7
				c0.2-1.4,0.8-2.7,1.5-3.9c0.5-0.8,1.1-1.5,1.8-2c0.6-0.5,1.3-0.9,2-1.1l-0.5,0.6c-0.3,0.2-0.5,0.5-0.8,0.8
				c-0.3,0.4-0.5,0.9-0.6,1.5c-0.1,0.5-0.1,0.9,0,1.4l1.9,7.3c0.3,1.4,0.3,2.8,0,4.2c-0.3,1.6-0.8,3-1.7,4.4c-0.6,0.9-1.2,1.7-2,2.3
				c-0.4,0.3-0.8,0.6-1.2,0.8L297.1,419.3z"/>
			<path class="st7" d="M297.2,420c0.4-0.5,0.6-1.1,0.7-1.8c0.1-0.6,0.1-1.2,0-1.7c0,0-1.9-6.2-2.4-8.4c-0.2-1.3-0.2-2.7,0-4
				c0.2-1.5,0.8-2.8,1.6-4.1c0.5-0.8,1.2-1.6,1.9-2.2c0.6-0.5,1.4-1,2.2-1.2l-0.5,0.6c-0.3,0.2-0.6,0.6-0.8,0.9
				c-0.3,0.5-0.5,1-0.6,1.6c-0.1,0.5-0.1,1,0,1.5l2.1,7.7c0.3,1.5,0.4,3,0.1,4.5c-0.3,1.7-0.9,3.2-1.8,4.7c-0.6,0.9-1.3,1.7-2.1,2.4
				c-0.4,0.3-0.8,0.6-1.3,0.9L297.2,420z"/>
			<path class="st7" d="M297.3,420.7c0.4-0.6,0.6-1.2,0.7-1.9c0.1-0.6,0.1-1.2,0-1.8c0,0-2.1-6.5-2.6-8.8c-0.3-1.4-0.4-2.8-0.2-4.2
				c0.2-1.6,0.8-3,1.6-4.4c0.5-0.9,1.2-1.7,2-2.4c0.7-0.6,1.5-1,2.3-1.3l-0.6,0.7c-0.3,0.3-0.6,0.6-0.9,1c-0.3,0.5-0.5,1.1-0.6,1.7
				c-0.1,0.5-0.1,1.1,0,1.6l2.4,8.1c0.4,1.6,0.5,3.3,0.2,4.9c-0.3,1.8-0.9,3.5-1.8,5c-0.6,1-1.4,1.9-2.3,2.7c-0.4,0.4-0.9,0.7-1.4,1
				L297.3,420.7z"/>
			<path class="st7" d="M297.4,421.5c0.4-0.6,0.6-1.3,0.7-2c0.1-0.6,0.1-1.3,0-2c0,0-2.4-6.9-3-9.4c-0.4-1.5-0.5-3-0.3-4.5
				c0.2-1.7,0.8-3.3,1.6-4.7c0.6-1,1.3-1.8,2.1-2.6c0.7-0.6,1.5-1.1,2.4-1.5l-0.6,0.7c-0.3,0.3-0.6,0.7-0.9,1
				c-0.3,0.5-0.5,1.2-0.6,1.8c-0.1,0.6-0.1,1.2,0,1.7l2.8,8.6c0.5,1.6,0.6,3.4,0.3,5.1c-0.2,1.9-0.8,3.7-1.8,5.3
				c-0.7,1.1-1.5,2.1-2.4,2.9c-0.5,0.4-0.9,0.7-1.4,1L297.4,421.5z"/>
			<path class="st8" d="M297.6,422.3c0.4-0.7,0.7-1.4,0.7-2.2c0.1-0.7,0-1.4-0.2-2.1c0,0-2.7-7.3-3.4-9.9c-0.4-1.6-0.6-3.2-0.4-4.9
				c0.2-1.8,0.8-3.5,1.7-5c0.6-1,1.3-2,2.2-2.8c0.8-0.7,1.6-1.2,2.6-1.6l-0.6,0.8c-0.4,0.3-0.7,0.7-0.9,1.1
				c-0.3,0.6-0.6,1.2-0.6,1.9c-0.1,0.6,0,1.2,0.1,1.8l3.1,9.1c0.5,1.7,0.7,3.6,0.5,5.4c-0.2,2-0.9,3.9-1.9,5.7
				c-0.6,1.2-1.5,2.2-2.4,3.1c-0.5,0.4-1,0.8-1.5,1.1L297.6,422.3z"/>
			<path class="st8" d="M297.8,423.2c0.4-0.8,0.7-1.6,0.8-2.4c0.1-0.7,0-1.5-0.2-2.2c0,0-3-7.7-3.8-10.5c-0.5-1.6-0.7-3.4-0.5-5.1
				c0.2-1.9,0.8-3.7,1.7-5.4c0.6-1.1,1.5-2.1,2.4-3c0.8-0.7,1.8-1.3,2.8-1.8l-0.6,0.8c-0.4,0.3-0.7,0.8-1,1.2
				c-0.3,0.6-0.6,1.3-0.6,2c-0.1,0.6,0,1.3,0.2,1.9l3.6,9.8c0.6,1.9,0.8,3.8,0.6,5.8c-0.2,2.1-0.9,4.2-1.9,6.1
				c-0.7,1.3-1.6,2.4-2.7,3.4c-0.5,0.5-1,0.9-1.6,1.2L297.8,423.2z"/>
			<path class="st9" d="M298,424.1c0.4-0.8,0.7-1.6,0.8-2.4c0.1-0.8,0-1.7-0.3-2.4c0,0-3.4-8.2-4.3-11.1c-0.5-1.7-0.8-3.5-0.7-5.4
				c0.2-2,0.8-4,1.8-5.8c0.6-1.2,1.5-2.3,2.4-3.2c0.8-0.8,1.8-1.5,3-1.9l-0.7,0.9c-0.4,0.4-0.8,0.8-1,1.3c-0.4,0.7-0.6,1.4-0.7,2.2
				c-0.1,0.7,0,1.4,0.2,2.1l4,10.2c0.7,1.9,1,4,0.8,6.1c-0.2,2.3-0.8,4.5-2,6.5c-0.7,1.4-1.6,2.6-2.8,3.7c-0.5,0.5-1.1,0.9-1.7,1.3
				L298,424.1z"/>
			<path class="st10" d="M298.2,425.1c0.5-0.8,0.7-1.7,0.8-2.7c0.1-0.8-0.1-1.7-0.4-2.4c0,0-3.8-8.6-4.9-11.7
				c-0.6-1.8-0.9-3.8-0.8-5.7c0.1-2.2,0.8-4.3,1.8-6.2c0.6-1.3,1.4-2.5,2.4-3.5c0.9-0.9,2-1.6,3.1-2.1l-0.7,1
				c-0.4,0.4-0.8,0.9-1.1,1.4c-0.4,0.8-0.6,1.6-0.7,2.4c-0.1,0.7,0,1.5,0.3,2.2l4.5,10.8c0.8,2.1,1.1,4.3,0.9,6.5
				c-0.1,2.4-0.8,4.8-2,7c-0.7,1.5-1.7,2.8-2.9,3.9c-0.6,0.5-1.2,1-1.8,1.4L298.2,425.1z"/>
			<path class="st10" d="M298.5,426.1c0.5-0.9,0.7-1.9,0.8-2.9c0.1-0.9-0.1-1.8-0.4-2.6c0,0-4.3-9.1-5.4-12.4
				c-1.6-4.1-1.3-8.7,0.8-12.6c0.7-1.3,1.6-2.6,2.6-3.6s2.1-1.7,3.3-2.3l-0.8,1c-0.5,0.4-0.8,1-1.1,1.5c-0.4,0.8-0.6,1.6-0.7,2.4
				c0,0.8,0.1,1.6,0.4,2.3l5,11.4c0.9,2.2,1.3,4.5,1.1,6.9c-0.1,2.6-0.8,5.1-2,7.5c-0.8,1.6-1.8,3-3,4.2c-0.6,0.6-1.3,1.1-2,1.6
				L298.5,426.1z"/>
			<path class="st11" d="M298.9,427.2c0.5-1,0.8-2,0.8-3.1c0-1-0.1-1.9-0.5-2.8c0,0-4.8-9.6-6.1-13c-0.8-2-1.2-4.2-1.2-6.4
				c0.1-2.4,0.7-4.9,1.8-7c0.7-1.5,1.7-2.9,2.8-4c1-1,2.2-1.9,3.5-2.4l-0.7,1.1c-0.5,0.5-0.9,1-1.2,1.7c-0.4,0.8-0.7,1.7-0.7,2.7
				c0,0.8,0.1,1.7,0.4,2.4l5.6,12c1,2.3,1.4,4.8,1.3,7.3c-0.1,2.8-0.7,5.5-2,8c-0.8,1.7-1.9,3.2-3.2,4.6c-0.6,0.6-1.3,1.2-2,1.7
				L298.9,427.2z"/>
			<path class="st11" d="M299.3,428.4c0.5-1,0.8-2.2,0.8-3.3c0-1-0.2-2-0.6-3c0,0-5.3-10.1-6.8-13.7c-0.9-2.2-1.4-4.5-1.4-6.8
				c0.1-2.6,0.7-5.2,1.8-7.5c0.7-1.6,1.8-3.1,3-4.3c1.1-1.1,2.3-2.1,3.8-2.7l-0.8,1.2c-0.5,0.5-0.9,1.1-1.2,1.8
				c-0.4,0.9-0.7,1.8-0.7,2.8c0,0.9,0.1,1.8,0.5,2.6l6.3,12.7c1.1,2.4,1.6,5,1.6,7.7c0,2.9-0.7,5.9-2,8.5c-0.8,1.8-2,3.5-3.3,4.9
				c-0.7,0.7-1.4,1.3-2.2,1.9L299.3,428.4z"/>
			<path class="st12" d="M299.7,429.6c0.5-1.1,0.8-2.3,0.8-3.5c0-1.1-0.2-2.2-0.7-3.1c0,0-5.9-10.7-7.6-14.5c-1-2.3-1.6-4.8-1.6-7.3
				c0-2.8,0.6-5.5,1.8-8c0.7-1.7,1.8-3.3,3.1-4.7c1.1-1.2,2.5-2.2,4-3l-0.9,1.3c-0.6,0.6-1,1.2-1.3,1.9c-0.5,0.9-0.7,2-0.7,3
				s0.2,1.9,0.6,2.8l7,13.4c1.2,2.5,1.9,5.3,1.9,8.2c0,3.1-0.6,6.2-2,9.1c-0.9,2-2.1,3.7-3.5,5.3c-0.7,0.7-1.5,1.4-2.3,2
				L299.7,429.6z"/>
			<path class="st13" d="M300.2,431c0.5-1.2,0.8-2.5,0.8-3.8c0-1.2-0.3-2.3-0.8-3.3c0,0-6.5-11.2-8.4-15.3c-1.1-2.4-1.8-5-1.9-7.6
				c-0.1-3,0.5-5.9,1.8-8.6c0.8-1.8,1.9-3.5,3.3-5c1.2-1.3,2.6-2.4,4.2-3.2l-0.9,1.4c-0.6,0.6-1.1,1.3-1.4,2.1
				c-0.5,1-0.7,2.1-0.7,3.2c0,1,0.3,2,0.7,2.9l7.8,14.1c1.4,2.7,2.1,5.6,2.1,8.7c0.1,3.4-0.6,6.7-2,9.8c-0.9,2.1-2.1,4-3.7,5.7
				c-0.7,0.8-1.6,1.5-2.4,2.2L300.2,431z"/>
			<path class="st14" d="M300.7,432.3c0.6-1.3,0.8-2.6,0.8-4c0-1.2-0.3-2.5-1-3.5c0,0-7.3-11.8-9.3-16.1c-1.2-2.5-2-5.3-2.2-8.1
				c-0.1-3.1,0.5-6.3,1.7-9.2c0.8-2,2-3.8,3.4-5.4c1.3-1.4,2.8-2.6,4.5-3.5l-1,1.5c-0.6,0.6-1.1,1.4-1.4,2.2
				c-0.9,2.1-0.8,4.5,0.1,6.6l8.6,14.8c1.5,2.8,2.3,6,2.4,9.2c0.1,3.6-0.5,7.1-1.9,10.4c-0.9,2.3-2.2,4.4-3.9,6.3
				c-0.8,0.9-1.7,1.7-2.6,2.4L300.7,432.3z"/>
			<path class="st15" d="M301.3,433.8c0.6-1.4,0.8-2.8,0.8-4.3c-0.1-1.3-0.4-2.6-1.1-3.7c0,0-8-12.5-10.3-17.1
				c-1.4-2.7-2.2-5.6-2.4-8.6c-0.2-3.3,0.4-6.7,1.7-9.8c0.8-2.1,2-4.1,3.6-5.8c1.3-1.6,2.9-2.8,4.8-3.8l-1,1.6
				c-0.7,0.7-1.2,1.5-1.5,2.4c-0.5,1.2-0.7,2.4-0.6,3.7c0,1.2,0.4,2.3,0.9,3.3l9.6,15.6c1.7,3,2.6,6.3,2.8,9.8
				c0.2,3.8-0.4,7.6-1.9,11c-0.9,2.4-2.3,4.7-4,6.6c-0.8,0.9-1.7,1.8-2.7,2.6L301.3,433.8z"/>
			<path class="st16" d="M302,435.3c0.6-1.5,0.8-3,0.7-4.6c-0.1-1.4-0.5-2.8-1.2-3.9c0,0-8.8-13.1-11.4-17.8c-1.5-2.8-2.5-5.9-2.8-9
				c-0.3-3.6,0.3-7.1,1.6-10.4c0.9-2.3,2.1-4.4,3.7-6.3c1.4-1.7,3.1-3.1,5-4.1l-1,1.7c-0.7,0.7-1.2,1.5-1.6,2.4
				c-0.5,1.3-0.7,2.6-0.6,3.9c0.1,1.2,0.4,2.4,1,3.5l10.5,16.4c1.9,3.1,3,6.6,3.2,10.3c0.3,4-0.3,8.1-1.8,11.8c-1,2.6-2.4,5-4.2,7.1
				c-0.9,1-1.8,1.9-2.9,2.8L302,435.3z"/>
			<path class="st17" d="M302.8,436.9c0.6-1.5,0.9-3.2,0.7-4.9c-0.1-1.5-0.6-2.9-1.4-4.2c0,0-9.8-13.8-12.6-18.7
				c-1.7-3-2.8-6.2-3.2-9.6c-0.3-3.8,0.2-7.6,1.6-11.1c0.9-2.4,2.2-4.7,3.9-6.7c1.5-1.8,3.3-3.3,5.4-4.5L296,379
				c-0.7,0.8-1.3,1.7-1.7,2.8c-0.5,1.3-0.7,2.8-0.6,4.2c0.1,1.3,0.5,2.6,1.2,3.7l11.7,17.3c2.1,3.3,3.3,7,3.6,10.8
				c0.4,4.3-0.2,8.6-1.7,12.6c-1,2.8-2.5,5.4-4.4,7.6c-0.9,1.1-2,2.1-3.1,3L302.8,436.9z"/>
			<path class="st18" d="M303.6,438.6c0.6-1.7,0.8-3.4,0.6-5.2c-0.2-1.6-0.7-3.1-1.6-4.4c0,0-10.7-14.5-13.9-19.7
				c-1.9-3.1-3.1-6.5-3.6-10.1c-0.4-4,0.1-8.1,1.5-11.9c0.9-2.7,2.3-5.1,4-7.3c1.6-2,3.5-3.6,5.7-4.9l-1.1,2c-0.8,0.9-1.4,1.9-1.7,3
				c-0.5,1.4-0.7,3-0.5,4.5c0.2,1.4,0.6,2.7,1.3,3.9l12.9,18.2c2.3,3.5,3.7,7.4,4.1,11.5c0.5,4.5,0,9.1-1.6,13.4
				c-1,3-2.6,5.7-4.6,8.2c-1,1.2-2.1,2.3-3.2,3.3L303.6,438.6z"/>
			<path class="st19" d="M304.6,440.4c0.7-1.8,0.9-3.7,0.6-5.5c-0.2-1.7-0.8-3.3-1.8-4.7c0,0-11.8-15.2-15.3-20.7
				c-2.1-3.3-3.4-6.9-4.1-10.7c-0.5-4.3-0.1-8.6,1.4-12.7c0.9-2.8,2.4-5.5,4.2-7.8c1.7-2.1,3.7-3.9,6-5.3l-1.2,2.1
				c-0.8,0.9-1.4,2-1.8,3.2c-1,3-0.7,6.2,1,8.9l14.2,19.1c2.5,3.6,4.1,7.8,4.6,12.2c0.7,4.8,0.2,9.7-1.5,14.3
				c-1.1,3.2-2.7,6.2-4.9,8.8c-1,1.3-2.2,2.5-3.4,3.5L304.6,440.4z"/>
			<path class="st20" d="M305.7,442.3c0.7-1.9,0.8-3.9,0.5-5.9c-0.3-1.8-0.9-3.4-2-4.9c0,0-13-15.9-16.8-21.7
				c-2.3-3.4-3.9-7.3-4.6-11.3c-0.7-4.5-0.2-9.1,1.2-13.5c1-3,2.5-5.8,4.4-8.3c1.7-2.3,3.9-4.2,6.4-5.7l-1.2,2.3
				c-0.9,1-1.5,2.2-1.9,3.4c-0.6,1.6-0.7,3.4-0.4,5.1c0.2,1.6,0.8,3.1,1.7,4.4l15.6,20c2.7,3.7,4.5,8.1,5.2,12.7
				c0.8,5.1,0.4,10.3-1.3,15.2c-1.1,3.4-2.7,6.6-4.9,9.4c-1.1,1.4-2.3,2.7-3.6,3.8L305.7,442.3z"/>
			<path class="st21" d="M306.8,444.3c0.7-2,0.8-4.2,0.5-6.3c-0.3-1.9-1.1-3.7-2.3-5.2c0,0-14.2-16.7-18.5-22.8
				c-2.5-3.6-4.3-7.7-5.1-11.9c-0.8-4.8-0.4-9.7,1.1-14.4c1-3.2,2.5-6.3,4.6-8.9c1.8-2.5,4.1-4.6,6.7-6.2l-1.3,2.4
				c-0.9,1.1-1.5,2.3-2,3.7c-0.6,1.7-0.7,3.6-0.4,5.4c0.3,1.7,0.9,3.2,1.9,4.6l17.1,21c3,4,5,8.6,5.9,13.6c1,5.4,0.6,11-1.1,16.2
				c-1.1,3.7-2.8,7.1-5.1,10.1c-1.1,1.5-2.4,2.9-3.8,4.1L306.8,444.3z"/>
			<path class="st22" d="M308.1,446.4c0.7-2.2,0.8-4.5,0.4-6.7c-0.3-2-1.2-3.9-2.4-5.5c0,0-15.6-17.5-20.3-23.9
				c-2.8-3.8-4.7-8.1-5.8-12.6c-0.9-5.1-0.6-10.3,0.9-15.3c1-3.5,2.6-6.7,4.7-9.6c1.9-2.7,4.3-5,7.1-6.8l-1.3,2.6
				c-2.2,2.7-3.1,6.3-2.4,9.8c0.3,1.8,1.1,3.4,2.1,4.9l18.8,21.9c3.3,4.2,5.6,9.1,6.5,14.3c1.1,5.7,0.8,11.7-0.9,17.3
				c-1.1,3.9-2.9,7.6-5.4,10.9c-1.2,1.6-2.5,3.1-4,4.5L308.1,446.4z"/>
			<path class="st23" d="M309.6,448.6c0.7-2.3,0.8-4.8,0.3-7.1c-0.4-2.1-1.4-4.2-2.8-5.8c0,0-17.1-18.3-22.3-25.1
				c-3.1-3.9-5.2-8.5-6.4-13.3c-1.1-5.4-0.9-11,0.6-16.3c1-3.7,2.7-7.2,4.9-10.3c2-2.9,4.6-5.4,7.5-7.3l-1.4,2.8
				c-1,1.3-1.7,2.7-2.1,4.2c-1.1,3.9-0.3,8.1,2.2,11.3l20.6,23.1c3.7,4.3,6.2,9.5,7.3,15.1c1.3,6.1,1.1,12.4-0.7,18.4
				c-1.1,4.2-3,8.1-5.6,11.7c-1.2,1.8-2.7,3.4-4.2,4.9L309.6,448.6z"/>
			<path class="st24" d="M311.1,451c0.7-2.5,0.8-5.1,0.2-7.6c-0.5-2.3-1.6-4.4-3.1-6.1c0,0-18.8-19.2-24.4-26.3
				c-3.3-4.1-5.8-8.9-7.2-14c-1.3-5.7-1.2-11.7,0.4-17.3c1-4,2.7-7.7,5.1-11c2.1-3.1,4.8-5.8,7.9-7.9l-1.4,3c-1,1.4-1.8,2.9-2.2,4.6
				c-0.6,2.1-0.7,4.4-0.1,6.5c0.5,2,1.4,3.8,2.7,5.4l22.6,24.2c4,4.5,6.8,10,8.1,15.9c1.5,6.4,1.4,13.1-0.4,19.5
				c-1.1,4.5-3.1,8.7-5.8,12.5c-1.3,1.9-2.8,3.6-4.5,5.2L311.1,451z"/>
			<path class="st25" d="M312.9,453.4c0.7-2.6,0.7-5.4,0-8.1c-0.6-2.4-1.8-4.6-3.5-6.5c0,0-20.5-20.1-26.8-27.5
				c-3.7-4.3-6.4-9.4-8-14.8c-1.5-6.1-1.5-12.4,0.1-18.5c1-4.2,2.8-8.2,5.2-11.8c2.3-3.3,5.1-6.2,8.4-8.6l-1.3,3.3
				c-1.1,1.5-1.8,3.1-2.3,4.9c-0.6,2.3-0.6,4.7,0,6.9c0.5,2.1,1.5,4.1,3,5.7l24.8,25.3c4.4,4.8,7.5,10.5,9,16.8
				c1.8,6.8,1.8,14,0,20.8c-1.2,4.8-3.2,9.3-5.9,13.4c-1.4,2-3,3.9-4.7,5.6L312.9,453.4z"/>
			<path class="st26" d="M314.8,456c0.7-2.8,0.7-5.8,0-8.6c-0.7-2.6-2-4.9-3.9-6.8c0,0-22.5-21-29.3-28.7c-4-4.5-7-9.8-8.8-15.6
				c-1.7-6.4-1.8-13.2-0.2-19.6c1-4.5,2.9-8.8,5.4-12.7c2.4-3.6,5.4-6.7,8.9-9.3l-1.5,3.5c-1.2,1.6-2,3.3-2.4,5.2
				c-1.1,4.8,0.1,9.8,3.4,13.4l27.1,26.5c4.8,4.9,8.3,11,10,17.7c2,7.2,2.2,14.9,0.4,22.2c-1.7,7.7-5.5,14.8-11.1,20.5L314.8,456z"
				/>
			<path class="st27" d="M316.9,458.7c0.7-3,0.6-6.2-0.2-9.1c-0.8-2.7-2.3-5.2-4.3-7.2c0,0-24.5-21.9-32.1-30
				c-4.4-4.7-7.7-10.3-9.8-16.4c-2-6.8-2.2-14-0.6-20.9c1-4.8,2.9-9.4,5.6-13.6c2.5-3.9,5.6-7.3,9.4-10l-1.6,3.8
				c-1.2,1.7-2,3.6-2.4,5.6c-0.6,2.6-0.5,5.3,0.3,7.9c0.7,2.4,2,4.5,3.7,6.3l29.6,27.6c5.2,5.2,9.1,11.6,11.1,18.6
				c3.8,13.2,1.8,27.4-5.5,39c-1.5,2.3-3.3,4.5-5.2,6.5L316.9,458.7z"/>
			<path class="st28" d="M319.2,461.5c0.7-3.2,0.6-6.6-0.4-9.8c-0.9-2.9-2.5-5.5-4.7-7.6c0,0-26.8-22.8-35-31.3
				c-4.8-4.9-8.5-10.8-10.8-17.3c-2.3-7.2-2.6-14.8-1-22.2c1-5.2,3-10.1,5.8-14.6c2.6-4.2,5.9-7.9,9.9-10.8l-1.6,4
				c-1.2,1.8-2.1,3.9-2.4,6c-0.6,2.8-0.5,5.7,0.4,8.4c0.8,2.5,2.2,4.8,4.1,6.7l32.4,28.8c5.7,5.3,9.9,12.1,12.3,19.5
				c2.6,8.1,3.1,16.7,1.3,25.1c-1.1,5.9-3.3,11.5-6.5,16.5c-1.6,2.5-3.4,4.9-5.5,7.1L319.2,461.5z"/>
			<path class="st29" d="M321.8,464.5c0.7-3.4,0.5-7-0.7-10.3c-1-3.1-2.8-5.8-5.2-7.9c0,0-29.3-23.8-38.2-32.7
				c-5.2-5.1-9.3-11.3-12-18.2c-2.6-7.6-3.1-15.7-1.6-23.6c1-5.5,3-10.8,5.9-15.6c2.7-4.5,6.3-8.5,10.4-11.7l-1.7,4.3
				c-2.9,4.6-3.7,10.2-2,15.3c0.9,2.7,2.5,5.1,4.5,7l35.4,30.1c6.2,5.6,10.9,12.7,13.6,20.6c5,14.8,3.2,31-4.9,44.3
				c-1.7,2.7-3.6,5.3-5.8,7.6L321.8,464.5z"/>
			<path class="st30" d="M324.6,467.6c0.7-3.7,0.4-7.5-0.9-11c-1.2-3.2-3.2-6.1-5.8-8.4c0,0-31.9-24.6-41.7-34
				c-5.7-5.4-10.2-11.9-13.2-19.1c-2.9-8-3.6-16.6-2.1-25c1-5.9,3-11.6,6.1-16.7c2.8-4.9,6.6-9.2,11-12.7l-1.7,4.6
				c-1.3,2.1-2.2,4.5-2.6,6.9c-0.6,3.2-0.3,6.4,0.9,9.4c1,2.8,2.7,5.3,4.9,7.3l38.6,31.3c6.8,5.8,12,13.3,15,21.7
				c5.6,15.6,4.1,32.9-4.3,47.3c-1.7,2.9-3.8,5.7-6,8.2L324.6,467.6z"/>
			<path class="st31" d="M327.7,470.9c0.7-3.9,0.3-7.9-1.2-11.7c-1.3-3.4-3.5-6.4-6.4-8.8c0,0-34.7-25.7-45.5-35.4
				c-6.3-5.6-11.2-12.4-14.6-20.1c-3.3-8.5-4.2-17.6-2.7-26.6c0.9-6.3,3-12.4,6.2-17.9c3-5.2,6.9-9.9,11.6-13.7l-1.8,4.9
				c-1.4,2.2-2.3,4.7-2.7,7.3c-0.6,3.4-0.2,6.8,1.1,10c1.2,3,3.1,5.6,5.5,7.8l42.1,32.6c7.4,6,13.1,13.9,16.6,22.8
				c6.3,16.5,4.9,35-3.8,50.3c-1.8,3.1-4,6.1-6.3,8.8L327.7,470.9z"/>
			<path class="st32" d="M331,474.3c0.6-4.2,0.1-8.5-1.5-12.4c-1.5-3.6-3.9-6.8-7-9.2c0,0-37.8-26.8-49.6-36.8
				c-6.8-5.8-12.3-13-16-21.1c-3.7-8.9-4.9-18.7-3.5-28.3c0.9-6.7,3-13.2,6.4-19.1c3.1-5.6,7.2-10.6,12.2-14.7l-1.8,5.3
				c-1.5,2.4-2.4,5.1-2.8,7.9c-0.5,3.6-0.1,7.3,1.4,10.6c1.3,3.2,3.4,6,6,8.1l45.8,33.9c23.2,18.8,29.5,51.4,15.1,77.5
				c-1.9,3.4-4.2,6.5-6.7,9.5L331,474.3z"/>
			<path class="st33" d="M334.7,477.8c1.3-8.8-2.4-17.5-9.5-22.8c0,0-41.1-27.7-54-38.3c-7.4-6-13.4-13.6-17.7-22.2
				c-6.9-16.3-6.1-34.8,2.2-50.5c3.2-6.1,7.6-11.5,12.8-15.9l-1.9,5.7c-1.5,2.6-2.5,5.5-2.8,8.5c-0.5,3.8,0.1,7.8,1.7,11.3
				c1.5,3.3,3.8,6.3,6.7,8.6l49.9,35.2c25.3,19.3,32.7,54.2,17.7,82.2c-2,3.6-4.3,7.1-7,10.2L334.7,477.8z"/>
			<path class="st34" d="M338.7,481.6c1.2-9.4-2.9-18.6-10.7-24.1c0,0-44.7-28.7-58.8-39.7c-8.1-6.2-14.8-14.2-19.5-23.2
				c-7.7-17.2-7.2-36.9,1.4-53.6c3.4-6.5,8-12.3,13.5-17.1l-1.9,6c-3.6,6.5-4,14.3-0.9,21c1.7,3.5,4.2,6.6,7.3,9l54.3,36.6
				c9.5,6.7,17,15.8,21.9,26.3c8.9,19.4,8.4,41.8-1.5,60.7c-2.1,3.9-4.5,7.6-7.3,11L338.7,481.6z"/>
			<path class="st35" d="M343.2,485.4c0.5-5.1-0.4-10.2-2.6-14.8c-2.1-4.3-5.3-8-9.3-10.7c0,0-48.8-29.7-63.9-41.1
				c-8.8-6.5-16-14.8-21.3-24.4c-12.4-25.6-6.5-56.4,14.6-75.6l-1.9,6.5c-1.7,3-2.7,6.3-2.9,9.8c-0.4,4.4,0.4,8.8,2.4,12.7
				c1.9,3.7,4.6,7,8,9.4l59.1,37.8c10.3,6.9,18.7,16.5,24.2,27.6c5.9,11.8,8.4,25,7.1,38.1c-0.7,9.3-3.3,18.3-7.5,26.5
				c-2.2,4.2-4.7,8.2-7.7,11.8L343.2,485.4z"/>
			<path class="st36" d="M347.9,489.5c0.5-5.4-0.6-10.8-3.1-15.7c-2.4-4.5-5.9-8.4-10.2-11.1c0,0-52.9-30.7-69.4-42.6
				c-7-5-17.7-14.6-23.3-25.5c-13.8-27.1-8-60,14.4-80.6l-1.9,6.9c-1.7,3.2-2.8,6.7-3,10.4c-0.4,4.7,0.6,9.3,2.8,13.5
				c2.1,3.9,5.1,7.3,8.8,9.8l64.2,39.2c11.2,7.2,20.3,17.1,26.5,28.9c11.1,21.5,11.3,47,0.7,68.8c-2.2,4.5-4.9,8.8-8,12.8
				L347.9,489.5z"/>
			<path class="st37" d="M353.1,493.7c0.4-5.8-0.8-11.6-3.6-16.6c-2.6-4.8-6.5-8.8-11.1-11.7c0,0-57.4-31.7-75.6-43.9
				c-7.6-5.2-19.3-15.2-25.6-26.7c-10.7-20.1-11.3-44.1-1.7-64.7c3.8-8.1,9.1-15.4,15.7-21.5l-2,7.3c-1.8,3.4-2.8,7.2-3,11.1
				c-0.3,5,0.8,9.9,3.2,14.3c2.4,4.2,5.7,7.7,9.8,10.3L329,392c12.1,7.4,22.2,17.8,29,30.3c12.3,22.7,13.1,49.8,2.1,73.1
				c-2.3,4.8-5.1,9.4-8.4,13.7L353.1,493.7z"/>
			<path class="st38" d="M358.8,498.1c0.3-6.2-1.1-12.3-4.2-17.6c-2.9-5.1-7.1-9.3-12.2-12.2c0,0-62.3-32.6-82-45.4
				c-8.3-5.3-21-15.8-28-27.9c-11.9-21.1-13.1-46.7-3-68.8c4-8.7,9.5-16.5,16.4-23.1l-2,7.9c-1.9,3.7-2.9,7.7-3,11.8
				c-0.3,5.3,1,10.6,3.7,15.1c2.6,4.4,6.2,8.1,10.6,10.8l75.8,41.8c13.1,7.6,24.1,18.6,31.7,31.7c13.7,23.8,15,52.7,3.6,77.7
				c-2.4,5.1-5.4,10-8.7,14.6L358.8,498.1z"/>
			<path class="st39" d="M365.1,502.6c0.2-6.6-1.5-13-4.9-18.7c-3.3-5.3-7.9-9.7-13.4-12.8c0,0-67.7-33.5-89-46.7
				c-9-5.5-22.8-16.4-30.6-29.3c-13.2-22.2-14.9-49.5-4.5-73.1c4.1-9.3,9.9-17.8,17.2-24.9l-2,8.4c-1.9,3.9-3,8.3-3,12.7
				c-0.2,5.6,1.3,11.2,4.3,16c2.9,4.7,6.9,8.5,11.6,11.3l82.3,43c14.3,7.8,26.2,19.2,34.7,33.1c15.1,25,17.1,55.8,5.3,82.6
				c-2.5,5.6-5.6,10.9-9.1,15.8L365.1,502.6z"/>
			<path class="st40" d="M371.8,507.4c0.1-7-1.8-13.9-5.6-19.7c-3.6-5.6-8.7-10.2-14.6-13.3c0,0-73.3-34.4-96.5-48.1
				c-9.8-5.7-24.9-17.1-33.5-30.5c-14.6-23.3-17-52.3-6.2-77.7c4.3-10,10.4-19.1,18-26.8l-2,9c-2,4.2-3,8.8-3,13.5
				c-0.1,6,1.6,11.9,4.9,16.9c3.2,4.9,7.5,9,12.7,11.8l89.3,44.2c15.5,8,28.6,19.8,38.1,34.4c16.7,26.3,19.5,59.1,7.3,87.8
				c-2.6,6-5.8,11.7-9.5,17.1L371.8,507.4z"/>
		</g>
	</g>
</g>
<path class="st40" d="M371.8,507.4c0.1-7-1.8-13.9-5.6-19.7c-3.6-5.6-8.7-10.2-14.6-13.3c0,0-73.3-34.4-96.5-48.1
	c-9.8-5.7-24.9-17.1-33.5-30.5c-14.6-23.3-17-52.3-6.2-77.7c4.3-10,10.4-19.1,18-26.8l-2,9c-2,4.2-3,8.8-3,13.5
	c-0.1,6,1.6,11.9,4.9,16.9c3.2,4.9,7.5,9,12.7,11.8l89.3,44.2c15.5,8,28.6,19.8,38.1,34.4c16.7,26.3,19.5,59.1,7.3,87.8
	c-2.6,6-5.8,11.7-9.5,17.1L371.8,507.4z"/>
<path class="st41" d="M562.9,409.9c8.4,8.3,15,18.3,19.5,29.3c4.5,11.1,6.8,22.9,6.8,34.8c0,11.8-2.3,23.5-6.8,34.4
	c-9.1,22.1-26.6,39.7-48.8,48.9c-11.1,4.5-22.9,6.8-34.8,6.8c-11.8,0-23.5-2.3-34.4-6.8c-22.1-9.2-39.7-26.7-48.8-48.9
	c-4.5-10.9-6.8-22.6-6.8-34.4c0-11.9,2.3-23.8,6.8-34.8c9.1-22.1,26.7-39.7,48.8-48.9c10.9-4.5,22.6-6.8,34.4-6.8
	c11.9,0,23.8,2.3,34.8,6.8C544.6,394.8,554.5,401.4,562.9,409.9z M515.7,555.3c5.7-5.7,9-14.9,10-27.6c1-12.7,1.4-27,1-42.9v-21.7
	c0.3-15.9-0.1-30.1-1-42.7c-1-12.6-4.3-21.9-10-27.8c-4.6-4-10.5-6.1-16.6-5.9h-0.4c-6.1-0.2-12,2-16.6,5.9c-5.7,5.9-9,15.2-10,27.8
	c-1,12.6-1.3,26.9-1.1,42.7v21.5c-0.3,15.9,0.1,30.2,1.1,42.9c1,12.8,4.3,22,10,27.8c4.6,4,10.5,6.1,16.6,5.9h0.5
	C505.3,561.4,511.1,559.3,515.7,555.3z"/>
<path class="st41" d="M976.7,561.2v3h-76.1v-3h5.9c1.2,0.1,2.4-0.5,3-1.5c0.6-1.1,0.6-2.5,0-3.6l-46.3-91.4c-1.1-1.7-2.5-1.7-4.2,0
	l-11.9,13.6c-2.7,3.4-4.2,7.6-4.2,11.9v65.4c-0.4,2.7,1.5,5.1,4.1,5.5c0.5,0.1,0.9,0.1,1.4,0h2.4v3h-76.1v-3h2.6
	c3.9,0,5.9-1.9,5.9-5.5V421.8c-12.6-8.9-25.7-17.1-39.3-24.4c-13.7-7.3-28.9-11-44.4-10.8c-6.2-0.2-12.2,2.1-16.6,6.4
	c-5.7,5.7-9,14.8-10,27.4s-1.3,26.8-1.1,42.7v21.6c-0.3,15.9,0.1,30.2,1.1,42.9c1,12.8,4.3,22,10,27.6c4.6,4,10.5,6.1,16.6,5.9h0.4
	c6.8,0,13.5-0.7,20.2-1.9c7.7-1.4,15.1-4.1,21.9-7.9c0.6-0.3,0.8-0.6,0.6-0.9c-0.1-0.3-0.5-0.4-1.1-0.4c-4.2,0-8.3-0.6-12.3-1.9
	c-3.9-1.2-7.5-3.2-10.6-5.7c-6.7-5.4-10.4-13.6-10.2-22.1c0-16.4,13.3-29.7,29.7-29.7s29.7,13.3,29.7,29.7c0,6.3-2,12.4-5.7,17.4
	c-4,5.6-9.2,10.3-15.1,13.8c-6.8,4.1-14.2,7.2-21.9,9.1c-8.4,2.3-17,3.4-25.7,3.4c-11.8,0-23.5-2.3-34.4-6.8
	c-22.1-9.2-39.7-26.7-48.8-48.9c-9.1-22.1-9.1-46.9,0-69.1c4.6-11,11.2-21,19.5-29.5c16.7-17.2,39.8-26.8,63.8-26.4
	c15.4-0.2,30.7,3.4,44.4,10.4c13.7,7.1,26.8,15.1,39.3,24v-106c0.4-2.9-1.6-5.5-4.5-5.9c-0.5-0.1-1-0.1-1.5,0h-2.6v-3
	c13-1,25.5-5,36.8-11.5c10.9-6.3,20.5-14.7,28.3-24.6h3v188.7c4.7,1.7,9.5,3,14.4,4c5,1,10.2,1.5,15.3,1.5
	c16.1,0.3,28.9-4,38.3-12.8c3.9-3.6,6.9-8,8.9-13c2-4.9,3-10.2,3-15.5c0.1-7.9-2.3-15.6-6.8-22.1c-4.2-6.2-10.6-10.6-17.8-12.2h-0.4
	v-3.1h55.7v3h-23.4c-2.1-0.2-4.2,0.7-5.5,2.4l-6.4,7.7c5.2,7,7.9,15.5,7.7,24.2c0.2,11.5-4.5,22.6-12.8,30.6l-1.3,1.3L965.2,556
	c1.3,3.3,4.6,5.4,8.1,5.1L976.7,561.2z M856.9,462.5c-2.3-0.6-4.6-1.2-7-1.9c-2.4-0.7-4.8-1.5-7-2.4v14.2c0,1.4,0.5,2.3,1.5,2.6
	c1,0.3,2.1-0.1,2.8-0.9L856.9,462.5z"/>
<path class="st41" d="M1036.8,482.5c-2,0-3.3,1.3-3.8,3.8v13.2c0.2,11.2,1,22.4,2.4,33.6c1.3,9.7,4.3,16.9,9.1,21.7
	c2,2.3,4.6,4,7.4,4.9c2.9,1,6,1.5,9.1,1.5h0.4c11.2,0,22.2-2.2,32.5-6.4c10.8-4.3,20.5-10.8,28.7-19.1l2.1,2.1
	c-35.3,35.2-92.4,35-127.6-0.3c-16.8-16.9-26.2-39.7-26.3-63.5c0-11.9,2.3-23.8,6.8-34.8s11.1-20.9,19.5-29.3
	c16.7-17.2,39.8-26.8,63.8-26.4c36.5-0.1,69.4,21.9,83.3,55.7c4.5,11.1,6.8,22.9,6.8,34.8v8.5L1036.8,482.5L1036.8,482.5z
	 M1033.4,467.2c0,1.4-0.1,2.8-0.2,4.3c-0.1,1.6-0.1,3.1,0.2,4.7c-0.2,1.6,0.9,3.2,2.5,3.4c0.3,0,0.6,0,0.9,0h48.5
	c1.7,0.2,3.2-0.9,3.4-2.6c0-0.3,0-0.5,0-0.8V446c0.1-10.7-0.5-21.4-1.9-32.1c-1.3-9.2-4.3-16.2-9.1-21c-2.2-2.2-4.8-3.8-7.7-4.9
	c-2.9-1-5.9-1.5-8.9-1.5c-3.1,0-6.2,0.5-9.1,1.5c-2.9,0.9-5.4,2.6-7.4,4.9c-5.7,5.7-9,14.8-10,27.4s-1.3,26.8-1,42.7L1033.4,467.2z"
	/>
<path class="st41" d="M1321.2,391.2c3.6,2.8,6.6,6.3,8.7,10.4c7.4,14.7,1.5,32.6-13.2,39.9c-14.7,7.4-32.6,1.5-39.9-13.2
	c-2.1-4.1-3.2-8.7-3.2-13.3c-0.1-6.3,1.9-12.4,5.7-17.4c3.7-5,8.8-8.8,14.6-11c-0.4-0.5-1.1-0.7-1.7-0.6s-1.1,0.2-1.7,0.2
	c-4.3,0.4-8.6,1.6-12.5,3.4c-4.5,2-8.8,4.4-13,7c-4.1,2.6-8,5.4-11.7,8.5c-3,2.4-5.7,5-8.3,7.9c-1.3,1.7-2.5,3.6-3.4,5.5
	c-1.1,2.1-1.7,4.4-1.7,6.8v130.5c0,3.7,2,5.5,5.9,5.5h2.4v3h-76.1v-3h2.4c2.7,0.4,5.1-1.4,5.5-4.1c0.1-0.5,0.1-0.9,0-1.4V428.6
	c0-4-1.9-5.9-5.5-5.9h-2.4v-3c13-1,25.5-5,36.8-11.5c10.9-6.2,20.3-14.6,27.8-24.6h3v27.2c0,0.5,0.3,1,0.9,1
	c0.6,0.1,1.3-0.1,1.7-0.6c2.4-2.6,4.9-5.1,7.7-7.3c3.7-3,7.5-5.9,11.5-8.5c4.2-2.8,8.6-5.2,13.2-7.3c4.8-2.3,10-3.8,15.3-4.5
	C1303.2,382.6,1313.5,385.2,1321.2,391.2z"/>
<path class="st41" d="M1494.1,409.9c8.4,8.4,15,18.3,19.5,29.3c4.5,11.1,6.8,22.9,6.8,34.8c0,11.8-2.3,23.5-6.8,34.4
	c-9.1,22.1-26.6,39.7-48.8,48.9c-11.1,4.5-22.9,6.8-34.9,6.8c-11.8,0-23.5-2.3-34.4-6.8c-22.2-9.1-39.8-26.7-48.9-48.9
	c-4.5-10.9-6.8-22.6-6.8-34.4c-0.1-11.9,2.3-23.8,6.8-34.8c9.1-22.2,26.7-39.8,48.9-48.9c10.9-4.5,22.6-6.8,34.4-6.8
	c12,0,23.8,2.3,34.9,6.8C1475.9,394.8,1485.8,401.4,1494.1,409.9z M1447,555.3c5.7-5.7,9-14.9,10-27.6c1-12.7,1.3-27,1.1-42.9v-21.7
	c0.3-15.9-0.1-30.1-1.1-42.7s-4.3-21.9-10-27.8c-4.6-4-10.5-6.1-16.6-5.9h-0.4c-6.1-0.2-12,2-16.6,5.9c-5.7,5.9-9,15.2-10,27.8
	c-1,12.6-1.3,26.9-1.1,42.7v21.5c-0.3,15.9,0.1,30.2,1.1,42.9s4.3,22,10.1,27.8c4.6,4,10.5,6.1,16.6,5.9h0.4
	C1436.5,561.4,1442.4,559.3,1447,555.3z"/>
<path class="st41" d="M1695.7,409.9c8.4,8.4,15,18.3,19.5,29.3c4.5,11.1,6.8,22.9,6.8,34.8c0,11.8-2.3,23.5-6.8,34.4
	c-9.1,22.1-26.6,39.7-48.8,48.9c-11.1,4.5-22.9,6.8-34.9,6.8c-11.8,0-23.5-2.3-34.4-6.8c-22.1-9.2-39.7-26.7-48.8-48.9
	c-4.5-10.9-6.8-22.6-6.8-34.4c-0.1-11.9,2.3-23.8,6.8-34.8c9.1-22.1,26.6-39.7,48.8-48.9c10.9-4.5,22.6-6.8,34.4-6.8
	c12,0,23.8,2.3,34.9,6.8C1677.4,394.8,1687.3,401.4,1695.7,409.9z M1648.5,555.3c5.7-5.7,9-14.9,10-27.6c1-12.7,1.3-27,1.1-42.9
	v-21.7c0.3-15.9-0.1-30.1-1.1-42.7s-4.3-21.9-10-27.8c-4.6-4-10.5-6.1-16.6-5.9h-0.4c-6.1-0.2-12,2-16.6,5.9
	c-5.7,5.9-9,15.2-10,27.8c-1,12.6-1.3,26.9-1.1,42.7v21.5c-0.3,15.9,0.1,30.2,1.1,42.9c1,12.8,4.3,22,10,27.6
	c4.6,4,10.5,6.1,16.6,5.9h0.4C1638,561.3,1643.9,559.3,1648.5,555.3z"/>
<g>
	<path class="st41" d="M206.6,730.5l19-96.8l30.9,70l32-70l17,96.8h-13.9l-8.7-54.4l-26.7,58.5L230.3,676l-9.7,54.4H206.6z"/>
	<path class="st41" d="M477.5,708.6h-38.6l-10,21.9h-14.6l44.6-95.7l43,95.7h-14.9L477.5,708.6z M471.9,695.8l-13.4-30.6l-14,30.6
		H471.9z"/>
	<path class="st41" d="M643.5,692.1l27.9,38.4h-16.6l-25.7-36.9h-2.4v36.9H613v-90.1H629c11.9,0,20.5,2.2,25.8,6.7
		c5.8,5,8.7,11.5,8.7,19.7c0,6.4-1.8,11.9-5.5,16.4C654.3,687.9,649.5,690.8,643.5,692.1z M626.6,681.7h4.3
		c12.9,0,19.3-4.9,19.3-14.8c0-9.2-6.3-13.8-18.8-13.8h-4.8V681.7z"/>
	<path class="st41" d="M798.5,676.3l35.1-35.9h18.1L811,681.2l40.9,49.3h-18.2l-32.4-40.1l-2.8,2.8v37.3h-13.6v-90.1h13.6V676.3z"/>
	<path class="st41" d="M1013.8,653.2h-36.1v21.6h35.1v12.8h-35.1v30.1h36.1v12.8h-49.7v-90.1h49.7V653.2z"/>
	<path class="st41" d="M1156.5,653.2v77.3h-13.6v-77.3h-20.7v-12.8h54.9v12.8H1156.5z"/>
	<path class="st41" d="M1302.8,640.4v90.1h-13.6v-90.1H1302.8z"/>
	<path class="st41" d="M1429.7,730.5v-96.2l65.7,68.7v-62.6h13.6v95.5l-65.7-68.5v63.1H1429.7z"/>
	<path class="st41" d="M1678.5,683.6h37.2v3c0,6.8-0.8,12.8-2.4,18c-1.6,4.8-4.2,9.3-7.9,13.5c-8.4,9.4-19,14.1-31.9,14.1
		c-12.6,0-23.4-4.5-32.4-13.6c-9-9.1-13.5-20.1-13.5-32.9c0-13.1,4.6-24.1,13.7-33.2c9.1-9.1,20.3-13.7,33.4-13.7
		c7,0,13.6,1.4,19.7,4.3c5.8,2.9,11.6,7.5,17.2,14l-9.7,9.3c-7.4-9.8-16.4-14.8-27-14.8c-9.5,0-17.5,3.3-24,9.9
		c-6.5,6.5-9.7,14.5-9.7,24.3c0,10,3.6,18.3,10.8,24.8c6.7,6,14,9,21.9,9c6.7,0,12.7-2.3,18-6.8c5.3-4.5,8.3-10,8.9-16.3h-22.5
		V683.6z"/>
</g>
</svg>
